<?xml version="1.0" encoding="UTF-8" standalone="no"?>
<!DOCTYPE svg PUBLIC "-//W3C//DTD SVG 1.1//EN" "http://www.w3.org/Graphics/SVG/1.1/DTD/svg11.dtd">
<svg width="100%" height="100%" viewBox="0 0 217 315" version="1.1" xmlns="http://www.w3.org/2000/svg" xmlns:xlink="http://www.w3.org/1999/xlink" xml:space="preserve" xmlns:serif="http://www.serif.com/" style="fill-rule:evenodd;clip-rule:evenodd;stroke-linejoin:round;stroke-miterlimit:1.41421;">
    <g transform="matrix(1,0,0,1,-3516.27,-271.232)">
        <g transform="matrix(1.37931,0,0,1.37931,3746.67,-872.159)">
            <g id="Logo">
                <g id="Shadow">
                    <g transform="matrix(1,0,0,1,-219,-32)">
                        <path d="M98.169,1010.96L98.479,1010.98L98.787,1011.01L99.094,1011.06L99.397,1011.12L99.697,1011.2L99.992,1011.3L100.282,1011.41L100.566,1011.53L100.843,1011.67L115.843,1019.67L116.117,1019.83L116.383,1019.99L116.639,1020.18L116.886,1020.37L117.121,1020.58L117.346,1020.8L117.559,1021.04L117.759,1021.28L117.947,1021.53L118.121,1021.8L118.281,1022.07L123.281,1031.07L123.428,1031.35L123.559,1031.63L123.675,1031.93L123.776,1032.23L123.861,1032.53L123.93,1032.84L123.982,1033.15L124.018,1033.47L124.038,1033.78L124.041,1034.1L124.027,1034.42L123.997,1034.73L123.951,1035.04L123.888,1035.35L123.809,1035.66L121.958,1042.14L121.012,1051.6L120.974,1051.9L120.921,1052.2L120.853,1052.5L120.77,1052.79L120.672,1053.08L120.56,1053.36L120.434,1053.64L120.294,1053.91L120.141,1054.17L119.975,1054.43L119.796,1054.67L119.605,1054.91L119.402,1055.14L119.188,1055.36L118.963,1055.56L118.729,1055.75L118.485,1055.93L118.232,1056.11L117.97,1056.26L117.702,1056.4L113.702,1058.4L113.43,1058.53L113.152,1058.65L112.868,1058.75L112.58,1058.83L112.288,1058.9L111.993,1058.96L106.331,1059.9L100.426,1061.59L96.108,1064.18L95.833,1064.34L95.551,1064.48L95.261,1064.6L94.965,1064.71L94.664,1064.81L94.358,1064.89L94.048,1064.95L93.736,1065L93.422,1065.03L93.106,1065.04L92.79,1065.04L92.475,1065.02L92.161,1064.98L91.85,1064.93L91.541,1064.86L91.237,1064.78L90.937,1064.68L90.643,1064.56L90.356,1064.43L90.075,1064.29L89.803,1064.13L89.54,1063.95L89.286,1063.77L89.042,1063.56L88.808,1063.35L88.587,1063.13L88.377,1062.89L88.18,1062.64L87.996,1062.39L87.826,1062.12L87.67,1061.85L87.529,1061.56L87.402,1061.27L87.291,1060.98L87.196,1060.68L87.116,1060.37L87.052,1060.06L87.005,1059.75L86.005,1051.75L85.975,1051.45L85.96,1051.14L85.96,1050.84L85.976,1050.53L86.008,1050.23L86.055,1049.92L86.117,1049.63L86.193,1049.33L86.285,1049.04L86.392,1048.75L86.512,1048.47L86.647,1048.2L86.795,1047.93L86.957,1047.67L87.132,1047.42L87.319,1047.18L87.517,1046.95L87.728,1046.73L88.529,1045.93L88.02,1042.87L87.005,1034.75L86.975,1034.45L86.96,1034.15L86.96,1033.85L86.975,1033.55L87.005,1033.25L88.005,1025.25L88.049,1024.96L88.107,1024.67L88.179,1024.38L88.265,1024.1L88.365,1023.82L88.479,1023.55L92.479,1014.55L92.612,1014.27L92.76,1013.99L92.921,1013.73L93.095,1013.47L93.283,1013.23L93.483,1012.99L93.695,1012.76L93.918,1012.55L94.152,1012.34L94.396,1012.15L94.649,1011.97L94.911,1011.81L95.182,1011.66L95.46,1011.52L95.744,1011.39L96.035,1011.29L96.331,1011.19L96.631,1011.12L96.934,1011.05L97.241,1011.01L97.55,1010.98L97.859,1010.96L98.169,1010.96ZM94,1026L93,1034L94,1042L95,1048L92,1051L93,1059L98,1056L105,1054L111,1053L115,1051L116,1041L118,1034L113,1025L98,1017L94,1026Z"/>
                    </g>
                    <g transform="matrix(1,0,0,1,-219,-33)">
                        <path d="M92.854,862.019L99.854,863.019L101.244,863.39L106.244,865.39L107.108,865.819L116.54,871.478L118.91,872.268L120.406,873.01L121.641,874.132L126.68,880.179L130.718,885.226L131.553,886.62L134.268,892.954L136.833,896.375L137.755,898.16L138.04,900.149L137.657,902.121L134.657,910.121L134.123,911.202L129.363,918.819L131.272,920.728L131.98,921.58L132.521,922.546L136.204,930.834L139.132,934.493L144.351,937.973L145.272,938.728L153.374,946.83L163.462,957.927L174.454,969.917L175.097,970.756L182.097,981.756L188.412,991.68L190.038,992.764L191.702,993.596L192.625,994.167L196.625,997.167L197.433,997.895L198.097,998.756L205.097,1009.76L205.861,1011.53L207.861,1019.53L207.995,1020.25L208.995,1028.25L209.031,1029.36L208.861,1030.46L207.042,1037.74L207.042,1048L206.981,1048.85L205.981,1055.85L205.404,1057.7L203.404,1061.7L202.593,1062.92L201.512,1063.92L194.512,1068.92L193.702,1069.4L186.978,1072.77L184.834,1075.62L183.767,1076.72L182.459,1077.52L180.993,1077.96L174.993,1078.96L174,1079.04L168,1079.04L166.249,1078.78L164.649,1078.03L161.649,1076.03L160.462,1074.99L159.584,1073.68L159.076,1072.18L158.247,1068.04L153,1068.04L152.007,1067.96L146.007,1066.96L144.235,1066.37L142.728,1065.27L141.497,1064.04L140.809,1064.04L132.59,1066.28L132.454,1066.46L132.924,1068.82L132.981,1070.85L131.981,1077.85L131.732,1078.91L130.732,1081.91L129.901,1083.53L128.625,1084.83L124.625,1087.83L123.194,1088.63L121.601,1089.01L111.601,1090.01L111,1090.04L106,1090.04L104.133,1089.75L102.449,1088.89L101.112,1087.55L100.254,1085.87L99.958,1084L99.958,1080.74L99.139,1077.46L98.988,1075.41L99.539,1073.42L100.728,1071.73L102.039,1070.42L98.333,1070.01L97.289,1069.79L96.812,1069.61L96.732,1069.91L94.732,1075.91L94.042,1077.33L93.008,1078.52L91.702,1079.4L87.702,1081.4L86.388,1081.88L85,1082.04L70,1082.04L68.349,1081.81L66.824,1081.14L65.54,1080.08L64.596,1078.7L63.596,1076.7L63.012,1074.8L63.076,1072.82L64.076,1067.82L64.509,1066.48L65.239,1065.28L66.226,1064.28L71.3,1060.22L74.234,1058.02L75.958,1054.57L75.958,1043.16L74.958,1024.16L74.958,1016.06L71.322,1006.07L71.001,1004.72L70.995,1003.33L71.767,996.387L61.845,980.15L61.133,978.442L60.972,976.598L61.93,962.229L61.019,955.854L61.036,954.032L61.596,952.298L62.958,949.574L62.958,943L63.12,941.612L63.596,940.298L65.958,935.574L65.958,918.5L64.743,919.383L62.945,919.967L61.055,919.967L59.257,919.383L57.728,918.272L55.728,916.272L53.728,914.272L52.68,912.864L52.082,911.215L51.982,909.463L52.391,907.756L54.39,902.756L54.976,901.292L54.768,901.021L54.164,899.564L53.958,898L53.958,894L54.12,892.612L54.596,891.298L56.345,887.8L58.191,881.34L58.754,880.003L62.754,873.003L63.728,871.728L66.728,868.728L67.979,867.768L69.436,867.164L71,866.958L71.881,866.958L75.226,864.282L76.448,863.524L77.815,863.076L82.815,862.076L84,861.958L92,861.958L92.854,862.019ZM84,868L79,869L74,873L71,873L68,876L64,883L62,890L60,894L60,898L62,900L60,905L58,910L62,914L63,913L64,909L65,903L65,900L67,899L68,902L68,909L72,914L72,937L69,943L69,951L67,955L68,962L67,977L78,995L77,1004L81,1015L81,1024L82,1043L82,1056L79,1062L75,1065L70,1069L69,1074L70,1076L85,1076L89,1074L91,1068L92,1063L95,1062L99,1064L108,1065L111,1063L114,1065L113,1069L109,1072L105,1076L106,1080L106,1084L111,1084L121,1083L125,1080L126,1077L127,1070L126,1065L129,1061L140,1058L144,1058L147,1061L153,1062L159,1062L165,1063L164,1066L165,1071L168,1073L174,1073L180,1072L183,1068L191,1064L198,1059L200,1055L201,1048L201,1037L203,1029L202,1021L200,1013L193,1002L189,999L187,998L184,996L170,974L159,962L149,951L141,943L135,939L131,934L127,925L121,919L124,916L129,908L132,900L129,896L126,889L122,884L117,878L114,877L104,871L99,869L92,868L84,868Z"/>
                    </g>
                </g>
            </g>
        </g>
    </g>
</svg>
