<?xml version="1.0" encoding="UTF-8" standalone="no"?>
<!DOCTYPE svg PUBLIC "-//W3C//DTD SVG 1.1//EN" "http://www.w3.org/Graphics/SVG/1.1/DTD/svg11.dtd">
<svg width="100%" height="100%" viewBox="0 0 680 507" version="1.1" xmlns="http://www.w3.org/2000/svg" xmlns:xlink="http://www.w3.org/1999/xlink" xml:space="preserve" xmlns:serif="http://www.serif.com/" style="fill-rule:evenodd;clip-rule:evenodd;stroke-linejoin:round;stroke-miterlimit:1.41421;">
    <g transform="matrix(1,0,0,1,-1796.79,-2112.61)">
        <g id="L" transform="matrix(2.54915,0,0,2.86284,-1737.96,-1875.67)">
            <path d="M1423.21,1397.55C1424.36,1397.21 1425.63,1397.32 1426.69,1397.85C1431.17,1400.08 1443,1406 1443,1406L1454,1417L1466,1428L1487,1435L1501,1440L1531,1438L1557,1435L1579,1440L1593,1452L1603,1461L1624,1467L1643,1474L1649,1483L1647,1490L1639,1489L1629,1494L1616,1493L1603,1488L1594,1483L1594,1474L1588,1498L1583,1508L1589,1526L1581,1566L1564,1565L1564,1558L1575,1554L1576,1541L1561,1511L1552,1500L1550,1492L1529,1495L1515,1504L1496,1509L1480,1506L1472,1547L1462,1566L1447,1566L1444,1560L1439,1560L1439,1557L1442,1554L1447,1553L1453,1544L1454,1506L1441,1495L1436,1488L1437,1481L1427,1465L1426,1461L1424,1460L1419,1436L1413,1431L1407,1428L1398,1427L1393,1423L1396,1418L1405,1417L1399,1413L1392,1405L1391,1398L1396,1397L1403,1398L1412,1400C1412,1400 1416.02,1399.46 1418,1399C1419.31,1398.7 1421.61,1398.03 1423.21,1397.55Z" style="fill:rgb(178,247,239);"/>
            <path d="M1396.69,1393.17L1403.88,1394.19L1412.19,1396.04L1412.3,1396.03L1412.47,1396L1412.66,1395.98L1412.87,1395.94L1413.08,1395.91L1413.29,1395.88L1413.52,1395.85L1413.75,1395.81L1413.98,1395.78L1414.21,1395.74L1414.45,1395.7L1414.69,1395.66L1414.92,1395.62L1415.15,1395.58L1415.38,1395.54L1415.61,1395.5L1415.72,1395.48L1415.83,1395.46L1415.93,1395.44L1416.04,1395.42L1416.14,1395.4L1416.24,1395.38L1416.34,1395.36L1416.43,1395.35L1416.52,1395.33L1416.61,1395.31L1416.69,1395.29L1416.76,1395.28L1416.84,1395.26L1416.91,1395.24L1417.01,1395.22L1417.11,1395.19L1417.23,1395.17L1417.35,1395.14L1417.48,1395.1L1417.61,1395.07L1417.75,1395.03L1417.9,1394.99L1418.04,1394.95L1418.2,1394.91L1418.35,1394.87L1418.51,1394.83L1418.67,1394.78L1418.84,1394.74L1419.01,1394.69L1419.17,1394.64L1419.51,1394.54L1419.86,1394.45L1420.2,1394.35L1420.54,1394.25L1420.87,1394.15L1421.2,1394.05L1421.51,1393.96L1421.84,1393.86L1421.95,1393.83L1422.06,1393.8L1422.17,1393.77L1422.28,1393.74L1422.39,1393.72L1422.5,1393.69L1422.61,1393.67L1422.72,1393.65L1422.83,1393.63L1422.94,1393.61L1423.05,1393.59L1423.17,1393.57L1423.27,1393.56L1423.39,1393.54L1423.5,1393.53L1423.61,1393.52L1423.73,1393.51L1423.83,1393.5L1423.95,1393.49L1424.06,1393.48L1424.17,1393.48L1424.28,1393.47L1424.39,1393.47L1424.51,1393.47L1424.62,1393.47L1424.73,1393.47L1424.84,1393.47L1424.95,1393.48L1425.07,1393.48L1425.18,1393.49L1425.29,1393.5L1425.4,1393.51L1425.51,1393.52L1425.62,1393.53L1425.74,1393.54L1425.85,1393.56L1425.96,1393.57L1426.07,1393.59L1426.18,1393.61L1426.29,1393.62L1426.4,1393.64L1426.51,1393.67L1426.62,1393.69L1426.72,1393.71L1426.84,1393.74L1426.95,1393.77L1427.05,1393.79L1427.16,1393.82L1427.27,1393.85L1427.38,1393.89L1427.48,1393.92L1427.59,1393.95L1427.69,1393.99L1427.8,1394.03L1427.9,1394.06L1428.01,1394.1L1428.11,1394.14L1428.21,1394.18L1428.32,1394.23L1428.42,1394.27L1428.52,1394.32L1428.62,1394.36L1428.72,1394.41L1428.81,1394.45L1433.26,1396.68L1438.66,1399.38L1445.13,1402.62L1445.73,1402.98L1446.26,1403.42L1457.19,1414.36L1468.44,1424.67L1488.58,1431.38L1501.68,1436.06L1530.56,1434.14L1556.44,1431.15L1557.26,1431.13L1558.08,1431.24L1580.08,1436.24L1581.12,1436.61L1582.02,1437.2L1596.06,1449.24L1605.35,1457.6L1625.5,1463.35L1644.67,1470.41L1645.49,1470.81L1646.19,1471.36L1646.75,1472.02L1652.75,1481.02L1653.2,1481.95L1653.36,1482.95L1653.22,1483.96L1651.22,1490.96L1650.74,1492L1649.93,1492.87L1648.88,1493.5L1647.66,1493.84L1646.39,1493.84L1639.85,1493.03L1631.13,1497.38L1630.34,1497.69L1629.49,1497.86L1628.62,1497.87L1615.62,1496.87L1614.93,1496.76L1614.27,1496.56L1601.27,1491.56L1600.69,1491.29L1594.94,1488.1L1592.26,1498.84L1591.98,1499.58L1587.64,1508.27L1593.18,1524.9L1593.35,1525.78L1593.29,1526.68L1585.29,1566.68L1584.89,1567.75L1584.16,1568.67L1583.16,1569.37L1581.98,1569.78L1580.71,1569.87L1563.71,1568.87L1562.64,1568.69L1561.66,1568.27L1560.82,1567.65L1560.18,1566.87L1559.78,1565.96L1559.64,1565L1559.64,1558L1559.83,1556.87L1560.38,1555.84L1561.25,1554.99L1562.35,1554.41L1570.84,1551.32L1571.58,1541.7L1557.21,1512.95L1548.48,1502.29L1548.03,1501.6L1547.75,1500.84L1546.64,1496.41L1530.71,1498.69L1517.55,1507.15L1516.92,1507.48L1516.24,1507.72L1497.24,1512.72L1496.17,1512.88L1495.1,1512.8L1483.52,1510.63L1476.29,1547.66L1475.95,1548.65L1465.95,1567.65L1465.27,1568.56L1464.34,1569.28L1463.22,1569.73L1462,1569.88L1447,1569.88L1445.76,1569.72L1444.63,1569.26L1443.69,1568.52L1443.02,1567.58L1441.17,1563.88L1439,1563.88L1437.87,1563.75L1436.82,1563.36L1435.92,1562.74L1435.23,1561.94L1434.79,1561.01L1434.64,1560L1434.64,1557L1434.77,1556.07L1435.14,1555.19L1435.75,1554.42L1438.75,1551.42L1439.41,1550.88L1440.19,1550.47L1441.05,1550.21L1444.21,1549.58L1448.67,1542.89L1449.6,1507.63L1438,1497.81L1437.32,1497.08L1432.32,1490.08L1431.88,1489.28L1431.66,1488.4L1431.68,1487.51L1432.5,1481.77L1423.19,1466.89L1422.75,1465.84L1422.17,1463.54L1421.87,1463.38L1420.86,1462.69L1420.12,1461.78L1419.71,1460.71L1414.98,1437.96L1410.41,1434.15L1405.61,1431.76L1397.46,1430.85L1396.6,1430.68L1395.8,1430.35L1395.09,1429.89L1390.09,1425.89L1389.34,1425.1L1388.85,1424.17L1388.64,1423.16L1388.75,1422.13L1389.16,1421.17L1392.16,1416.17L1392.75,1415.41L1393.53,1414.8L1394.45,1414.37L1394.64,1414.33L1388.56,1407.38L1387.98,1406.49L1387.68,1405.49L1386.68,1398.49L1386.7,1397.35L1387.1,1396.26L1387.84,1395.33L1388.85,1394.62L1390.05,1394.21L1395.05,1393.21L1395.87,1393.12L1396.69,1393.17ZM1391,1398L1392,1405L1399,1413L1405,1417L1396,1418L1393,1423L1398,1427L1407,1428L1413,1431L1419,1436L1424,1460L1426,1461L1427,1465L1437,1481L1436,1488L1441,1495L1454,1506L1453,1544L1447,1553L1442,1554L1439,1557L1439,1560L1444,1560L1447,1566L1462,1566L1472,1547L1480,1506L1496,1509L1515,1504L1529,1495L1550,1492L1552,1500L1561,1511L1576,1541L1575,1554L1564,1558L1564,1565L1581,1566L1589,1526L1583,1508L1588,1498L1594,1474L1594,1483L1603,1488L1616,1493L1629,1494L1639,1489L1647,1490L1649,1483L1643,1474L1624,1467L1603,1461L1593,1452L1579,1440L1557,1435L1531,1438L1501,1440L1487,1435L1466,1428L1454,1417L1443,1406L1436.52,1402.76L1431.13,1400.06L1426.69,1397.85L1426.64,1397.82L1426.59,1397.8L1426.54,1397.77L1426.49,1397.75L1426.44,1397.73L1426.38,1397.71L1426.33,1397.69L1426.28,1397.67L1426.23,1397.65L1426.18,1397.63L1426.12,1397.61L1426.07,1397.59L1426.02,1397.58L1425.97,1397.56L1425.91,1397.54L1425.86,1397.53L1425.81,1397.51L1425.75,1397.5L1425.7,1397.49L1425.64,1397.47L1425.59,1397.46L1425.54,1397.45L1425.48,1397.44L1425.42,1397.43L1425.37,1397.42L1425.32,1397.41L1425.26,1397.4L1425.2,1397.39L1425.15,1397.39L1425.1,1397.38L1425.04,1397.37L1424.98,1397.37L1424.93,1397.37L1424.87,1397.36L1424.82,1397.36L1424.76,1397.36L1424.7,1397.35L1424.65,1397.35L1424.59,1397.35L1424.54,1397.35L1424.48,1397.35L1424.42,1397.35L1424.37,1397.36L1424.31,1397.36L1424.26,1397.36L1424.2,1397.37L1424.15,1397.37L1424.09,1397.38L1424.03,1397.38L1423.98,1397.39L1423.92,1397.39L1423.87,1397.4L1423.81,1397.41L1423.76,1397.42L1423.7,1397.43L1423.64,1397.44L1423.59,1397.45L1423.54,1397.46L1423.48,1397.47L1423.42,1397.49L1423.37,1397.5L1423.32,1397.52L1423.26,1397.53L1423.21,1397.55L1422.9,1397.64L1422.58,1397.73L1422.24,1397.83L1421.9,1397.93L1421.55,1398.04L1421.2,1398.14L1420.85,1398.24L1420.5,1398.34L1420.32,1398.39L1420.15,1398.44L1419.97,1398.49L1419.8,1398.53L1419.63,1398.58L1419.47,1398.62L1419.3,1398.67L1419.14,1398.71L1418.99,1398.75L1418.83,1398.8L1418.68,1398.83L1418.54,1398.87L1418.39,1398.91L1418.26,1398.94L1418.13,1398.97L1418,1399L1417.91,1399.02L1417.81,1399.04L1417.71,1399.07L1417.61,1399.09L1417.5,1399.11L1417.39,1399.13L1417.29,1399.15L1417.17,1399.17L1417.06,1399.2L1416.95,1399.22L1416.83,1399.24L1416.71,1399.26L1416.59,1399.28L1416.47,1399.31L1416.23,1399.35L1415.98,1399.39L1415.73,1399.43L1415.48,1399.48L1415.23,1399.52L1414.99,1399.56L1414.74,1399.6L1414.5,1399.63L1414.26,1399.67L1414.03,1399.71L1413.8,1399.74L1413.59,1399.77L1413.38,1399.8L1413.18,1399.83L1412.99,1399.86L1412.66,1399.91L1412.38,1399.95L1412.18,1399.98L1412,1400L1403,1398L1396,1397L1391,1398Z" style="fill:rgb(28,29,33);"/>
        </g>
    </g>
</svg>
