<?xml version="1.0" encoding="UTF-8" standalone="no"?>
<!DOCTYPE svg PUBLIC "-//W3C//DTD SVG 1.1//EN" "http://www.w3.org/Graphics/SVG/1.1/DTD/svg11.dtd">
<svg width="100%" height="100%" viewBox="0 0 669 495" version="1.1" xmlns="http://www.w3.org/2000/svg" xmlns:xlink="http://www.w3.org/1999/xlink" xml:space="preserve" xmlns:serif="http://www.serif.com/" style="fill-rule:evenodd;clip-rule:evenodd;stroke-linejoin:round;stroke-miterlimit:1.41421;">
    <g transform="matrix(1,0,0,1,-1802.34,-1214.81)">
        <g id="L" transform="matrix(2.54915,0,0,2.86284,-1737.96,-2779.03)">
            <path d="M1423.21,1397.55C1424.36,1397.21 1425.63,1397.32 1426.69,1397.85C1431.17,1400.08 1443,1406 1443,1406L1454,1417L1466,1428L1487,1435L1501,1440L1531,1438L1557,1435L1579,1440L1593,1452L1603,1461L1624,1467L1643,1474L1649,1483L1647,1490L1639,1489L1629,1494L1616,1493L1603,1488L1594,1483L1594,1474L1588,1498L1583,1508L1589,1526L1581,1566L1564,1565L1564,1558L1575,1554L1576,1541L1561,1511L1552,1500L1550,1492L1529,1495L1515,1504L1496,1509L1480,1506L1472,1547L1462,1566L1447,1566L1444,1560L1439,1560L1439,1557L1442,1554L1447,1553L1453,1544L1454,1506L1441,1495L1436,1488L1437,1481L1427,1465L1426,1461L1424,1460L1419,1436L1413,1431L1407,1428L1398,1427L1393,1423L1396,1418L1405,1417L1399,1413L1392,1405L1391,1398L1396,1397L1403,1398L1412,1400C1412,1400 1416.02,1399.46 1418,1399C1419.31,1398.7 1421.61,1398.03 1423.21,1397.55Z" style="fill:rgb(93,217,193);"/>
            <path d="M1403.44,1396.1L1412.1,1398.02L1412.32,1397.99L1412.64,1397.94L1412.83,1397.92L1413.02,1397.89L1413.23,1397.86L1413.44,1397.83L1413.66,1397.79L1413.89,1397.76L1414.12,1397.72L1414.36,1397.68L1414.6,1397.65L1414.84,1397.61L1415.08,1397.57L1415.33,1397.53L1415.57,1397.49L1415.81,1397.44L1416.04,1397.4L1416.16,1397.38L1416.27,1397.36L1416.38,1397.34L1416.49,1397.32L1416.6,1397.3L1416.71,1397.28L1416.81,1397.26L1416.91,1397.24L1417.01,1397.22L1417.11,1397.2L1417.2,1397.18L1417.29,1397.16L1417.37,1397.14L1417.45,1397.12L1417.57,1397.1L1417.68,1397.07L1417.81,1397.04L1417.94,1397L1418.08,1396.97L1418.22,1396.93L1418.37,1396.89L1418.52,1396.85L1418.67,1396.81L1418.83,1396.77L1418.99,1396.73L1419.16,1396.68L1419.32,1396.63L1419.49,1396.59L1419.66,1396.54L1419.83,1396.49L1420.18,1396.39L1420.53,1396.29L1420.88,1396.19L1421.22,1396.09L1421.56,1395.99L1421.89,1395.89L1422.21,1395.8L1422.53,1395.7L1422.61,1395.68L1422.69,1395.66L1422.77,1395.63L1422.85,1395.62L1422.93,1395.6L1423.02,1395.58L1423.1,1395.56L1423.18,1395.54L1423.27,1395.53L1423.35,1395.51L1423.43,1395.5L1423.52,1395.49L1423.6,1395.48L1423.68,1395.46L1423.77,1395.45L1423.85,1395.45L1423.93,1395.44L1424.02,1395.43L1424.1,1395.42L1424.19,1395.42L1424.27,1395.42L1424.35,1395.41L1424.44,1395.41L1424.52,1395.41L1424.61,1395.41L1424.69,1395.41L1424.77,1395.41L1424.86,1395.42L1424.94,1395.42L1425.03,1395.42L1425.11,1395.43L1425.19,1395.44L1425.28,1395.44L1425.36,1395.45L1425.44,1395.46L1425.53,1395.47L1425.61,1395.49L1425.69,1395.5L1425.78,1395.51L1425.86,1395.53L1425.94,1395.54L1426.02,1395.56L1426.1,1395.58L1426.18,1395.59L1426.27,1395.61L1426.35,1395.63L1426.43,1395.65L1426.51,1395.67L1426.59,1395.7L1426.67,1395.72L1426.75,1395.75L1426.83,1395.77L1426.91,1395.8L1426.99,1395.83L1427.07,1395.86L1427.14,1395.88L1427.22,1395.91L1427.3,1395.95L1427.38,1395.98L1427.45,1396.01L1427.53,1396.05L1427.61,1396.08L1427.68,1396.12L1427.75,1396.15L1432.19,1398.37L1437.59,1401.07L1444.07,1404.31L1444.63,1404.71L1455.6,1415.68L1467.22,1426.34L1487.79,1433.19L1501.34,1438.03L1530.78,1436.07L1556.72,1433.08L1557.54,1433.12L1579.54,1438.12L1580.06,1438.31L1580.51,1438.6L1594.53,1450.62L1604.17,1459.3L1624.75,1465.18L1643.83,1472.21L1644.43,1472.53L1644.87,1473.01L1650.87,1482.01L1651.16,1482.72L1651.11,1483.48L1649.11,1490.48L1648.78,1491.12L1648.21,1491.61L1647.49,1491.89L1646.7,1491.92L1639.43,1491.01L1630.07,1495.69L1629.46,1495.9L1628.81,1495.93L1615.81,1494.93L1615.14,1494.78L1602.14,1489.78L1601.85,1489.65L1593.48,1485L1590.13,1498.42L1589.99,1498.79L1585.32,1508.13L1591.09,1525.45L1591.18,1525.89L1591.15,1526.34L1583.15,1566.34L1582.87,1567L1582.34,1567.53L1581.64,1567.85L1580.86,1567.94L1563.86,1566.94L1563.07,1566.75L1562.41,1566.33L1561.97,1565.71L1561.82,1565L1561.82,1558L1561.99,1557.25L1562.46,1556.62L1563.18,1556.2L1572.92,1552.66L1573.79,1541.35L1559.1,1511.98L1550.24,1501.14L1549.87,1500.42L1548.32,1494.21L1529.86,1496.84L1516.28,1505.57L1515.62,1505.86L1496.62,1510.86L1496.09,1510.94L1495.55,1510.9L1481.76,1508.31L1474.15,1547.33L1473.97,1547.82L1463.97,1566.82L1463.49,1567.41L1462.8,1567.8L1462,1567.94L1447,1567.94L1446.18,1567.8L1445.49,1567.4L1445.01,1566.79L1442.59,1561.94L1439,1561.94L1438.17,1561.79L1437.46,1561.37L1436.99,1560.74L1436.82,1560L1436.82,1557L1436.96,1556.31L1437.37,1555.71L1440.37,1552.71L1440.89,1552.33L1441.52,1552.11L1445.61,1551.29L1450.84,1543.45L1451.8,1506.81L1439.5,1496.41L1439.16,1496.04L1434.16,1489.04L1433.87,1488.42L1433.84,1487.76L1434.75,1481.39L1425.1,1465.94L1424.87,1465.42L1424.08,1462.27L1422.93,1461.69L1422.43,1461.35L1422.06,1460.89L1421.86,1460.35L1416.99,1436.98L1411.7,1432.58L1406.31,1429.88L1397.73,1428.93L1397.1,1428.77L1396.54,1428.44L1391.54,1424.44L1391.09,1423.94L1390.85,1423.34L1390.85,1422.69L1391.08,1422.09L1394.08,1417.09L1394.5,1416.6L1395.07,1416.25L1395.73,1416.07L1399.37,1415.67L1397.69,1414.55L1397.28,1414.19L1390.28,1406.19L1389.99,1405.75L1389.84,1405.25L1388.84,1398.25L1388.88,1397.53L1389.22,1396.89L1389.79,1396.39L1390.52,1396.11L1395.52,1395.11L1396.35,1395.08L1403.44,1396.1ZM1391,1398L1392,1405L1399,1413L1405,1417L1396,1418L1393,1423L1398,1427L1407,1428L1413,1431L1419,1436L1424,1460L1426,1461L1427,1465L1437,1481L1436,1488L1441,1495L1454,1506L1453,1544L1447,1553L1442,1554L1439,1557L1439,1560L1444,1560L1447,1566L1462,1566L1472,1547L1480,1506L1496,1509L1515,1504L1529,1495L1550,1492L1552,1500L1561,1511L1576,1541L1575,1554L1564,1558L1564,1565L1581,1566L1589,1526L1583,1508L1588,1498L1594,1474L1594,1483L1603,1488L1616,1493L1629,1494L1639,1489L1647,1490L1649,1483L1643,1474L1624,1467L1603,1461L1593,1452L1579,1440L1557,1435L1531,1438L1501,1440L1487,1435L1466,1428L1454,1417L1443,1406L1436.52,1402.76L1431.13,1400.06L1426.69,1397.85L1426.64,1397.82L1426.59,1397.8L1426.54,1397.77L1426.49,1397.75L1426.44,1397.73L1426.38,1397.71L1426.33,1397.69L1426.28,1397.67L1426.23,1397.65L1426.18,1397.63L1426.12,1397.61L1426.07,1397.59L1426.02,1397.58L1425.97,1397.56L1425.91,1397.54L1425.86,1397.53L1425.81,1397.51L1425.75,1397.5L1425.7,1397.49L1425.64,1397.47L1425.59,1397.46L1425.54,1397.45L1425.48,1397.44L1425.42,1397.43L1425.37,1397.42L1425.32,1397.41L1425.26,1397.4L1425.2,1397.39L1425.15,1397.39L1425.1,1397.38L1425.04,1397.37L1424.98,1397.37L1424.93,1397.37L1424.87,1397.36L1424.82,1397.36L1424.76,1397.36L1424.7,1397.35L1424.65,1397.35L1424.59,1397.35L1424.54,1397.35L1424.48,1397.35L1424.42,1397.35L1424.37,1397.36L1424.31,1397.36L1424.26,1397.36L1424.2,1397.37L1424.15,1397.37L1424.09,1397.38L1424.03,1397.38L1423.98,1397.39L1423.92,1397.39L1423.87,1397.4L1423.81,1397.41L1423.76,1397.42L1423.7,1397.43L1423.64,1397.44L1423.59,1397.45L1423.54,1397.46L1423.48,1397.47L1423.42,1397.49L1423.37,1397.5L1423.32,1397.52L1423.26,1397.53L1423.21,1397.55L1422.9,1397.64L1422.58,1397.73L1422.24,1397.83L1421.9,1397.93L1421.55,1398.04L1421.2,1398.14L1420.85,1398.24L1420.5,1398.34L1420.32,1398.39L1420.15,1398.44L1419.97,1398.49L1419.8,1398.53L1419.63,1398.58L1419.47,1398.62L1419.3,1398.67L1419.14,1398.71L1418.99,1398.75L1418.83,1398.8L1418.68,1398.83L1418.54,1398.87L1418.39,1398.91L1418.26,1398.94L1418.13,1398.97L1418,1399L1417.91,1399.02L1417.81,1399.04L1417.71,1399.07L1417.61,1399.09L1417.5,1399.11L1417.39,1399.13L1417.29,1399.15L1417.17,1399.17L1417.06,1399.2L1416.95,1399.22L1416.83,1399.24L1416.71,1399.26L1416.59,1399.28L1416.47,1399.31L1416.23,1399.35L1415.98,1399.39L1415.73,1399.43L1415.48,1399.48L1415.23,1399.52L1414.99,1399.56L1414.74,1399.6L1414.5,1399.63L1414.26,1399.67L1414.03,1399.71L1413.8,1399.74L1413.59,1399.77L1413.38,1399.8L1413.18,1399.83L1412.99,1399.86L1412.66,1399.91L1412.38,1399.95L1412.18,1399.98L1412,1400L1403,1398L1396,1397L1391,1398Z" style="fill:rgb(28,29,33);"/>
        </g>
    </g>
</svg>
