<?xml version="1.0" encoding="UTF-8" standalone="no"?>
<!DOCTYPE svg PUBLIC "-//W3C//DTD SVG 1.1//EN" "http://www.w3.org/Graphics/SVG/1.1/DTD/svg11.dtd">
<svg width="100%" height="100%" viewBox="0 0 479 389" version="1.1" xmlns="http://www.w3.org/2000/svg" xmlns:xlink="http://www.w3.org/1999/xlink" xml:space="preserve" xmlns:serif="http://www.serif.com/" style="fill-rule:evenodd;clip-rule:evenodd;stroke-linejoin:round;stroke-miterlimit:1.41421;">
    <g transform="matrix(1,0,0,1,-1025.74,-2230.11)">
        <g id="M" transform="matrix(1.72953,0,0,1.53271,-825.849,2207.5)">
            <path d="M1077,42L1077,34L1077,26L1082,25L1091,27L1101,28L1105,28L1108,23L1113,22L1119,22L1125,24L1133,26L1139,29L1142,33L1143,39L1146,44L1149,50L1152,59L1152,66L1155,74L1159,79L1162,80L1163,84L1168,85L1170,86L1174,87L1176,89L1183,90L1190,92L1194,94L1205,94L1212,93L1221,91L1232,89L1240,88L1255,86L1271,85L1286,87L1307,94L1314,97L1320,102L1326,109L1329,115L1332,123L1334,128L1337,133L1340,139L1340,143L1341,146L1338,144L1333,139L1330,134L1327,127L1324,122L1321,116L1318,114L1316,114L1317,117L1319,122L1319,126L1318,134L1316,143L1315,147L1315,153L1316,160L1316,169L1321,184L1327,192L1331,195L1338,203L1340,206L1339,211L1338,217L1337,223L1335,228L1334,236L1333,243L1333,255L1329,257L1319,256L1314,255L1318,249L1319,247L1324,244L1327,241L1328,237L1328,228L1328,218L1326,216L1324,216L1324,219L1323,223L1322,233L1323,238L1320,239L1318,242L1309,242L1306,240L1304,239L1309,235L1309,233L1314,231L1316,229L1318,226L1318,217L1318,211L1317,209L1315,203L1310,195L1302,186L1293,176L1284,163L1282,157L1277,150L1268,140L1263,138L1258,138L1254,139L1236,147L1208,160L1194,166L1184,168L1175,169L1165,169L1160,167L1158,176L1157,188L1156,202L1155,224L1156,229L1156,237L1153,237L1151,240L1150,243L1149,248L1148,259L1144,261L1140,261L1124,261L1128,257L1130,253L1132,251L1128,252L1134,243L1139,243L1143,242L1144,236L1143,220L1139,174L1138,169L1135,164L1124,145L1119,134L1118,130L1120,126L1121,121L1123,115L1119,106L1116,96L1116,78L1115,70L1113,64L1111,59L1107,56L1103,53L1098,53L1093,52L1089,49L1083,46L1077,42Z" style="fill:rgb(178,247,239);"/>
            <path d="M1120.82,15.048L1126.61,16.977L1134.39,18.922L1135.6,19.372L1141.6,22.372L1142.85,23.197L1143.9,24.317L1146.9,28.317L1147.8,29.885L1148.31,31.66L1149.07,36.182L1151.47,40.18L1154.6,46.438L1155.01,47.448L1158.01,56.448L1158.32,57.703L1158.42,59L1158.42,64.529L1160.49,70.049L1162.56,72.626L1163.82,73.048L1165.3,73.78L1166.57,74.905L1167.55,76.353L1168.04,77.645L1169.12,77.862L1170.6,78.372L1172.02,79.079L1175.39,79.922L1176.92,80.542L1178.26,81.574L1178.78,82.089L1183.81,82.808L1184.58,82.972L1191.58,84.972L1192.6,85.372L1195.36,86.751L1204.6,86.751L1210.98,85.839L1219.87,83.863L1231.13,81.814L1239.27,80.798L1254.44,78.774L1270.64,77.762L1271.75,77.801L1286.75,79.801L1287.82,80.048L1296.82,83.048L1309.05,87.125L1316.28,90.223L1317.82,91.169L1323.82,96.169L1324.62,96.96L1330.62,103.96L1331.6,105.438L1334.6,111.438L1334.92,112.175L1337.89,120.096L1339.63,124.451L1342.47,129.18L1345.6,135.438L1346.21,137.158L1346.42,139L1346.42,141.682L1347.01,143.448L1347.4,145.378L1347.31,147.354L1346.75,149.229L1345.76,150.864L1344.42,152.136L1342.82,152.951L1341.09,153.249L1339.35,153.006L1337.73,152.241L1334.73,150.241L1333.74,149.425L1328.74,144.425L1327.68,143.064L1324.68,138.064L1324.22,137.156L1324.02,136.703L1322.21,144.866L1321.42,148.003L1321.42,152.42L1322.34,158.846L1322.42,160L1322.42,167.682L1324.01,172.448L1326.62,180.274L1331.32,186.532L1334.56,188.963L1335.57,189.907L1342.57,197.907L1343.13,198.642L1345.13,201.642L1346.02,203.473L1346.41,205.514L1346.27,207.596L1345.29,212.468L1344.31,218.34L1343.31,224.34L1342.86,225.982L1341.23,230.038L1340.35,237.083L1339.42,243.581L1339.42,255L1339.16,257.062L1338.38,258.954L1337.17,260.519L1335.6,261.628L1331.6,263.628L1330.05,264.152L1328.43,264.221L1318.15,263.193L1312.88,262.138L1311.11,261.473L1309.58,260.263L1308.43,258.608L1307.74,256.649L1307.59,254.551L1307.97,252.49L1308.87,250.642L1309.79,249.249L1309,249.249L1307.31,248.993L1305.73,248.241L1303.06,246.457L1301.4,245.628L1299.96,244.634L1298.8,243.252L1298,241.576L1297.61,239.722L1297.66,237.819L1298.15,235.997L1299.05,234.382L1300.28,233.086L1302.83,231.047L1303.34,229.575L1304.25,228.122L1305.44,226.963L1306.85,226.167L1310.67,224.639L1311.26,224.059L1311.58,223.578L1311.58,212.904L1311.4,212.562L1310.99,211.552L1309.28,206.42L1305.07,199.691L1297.48,191.15L1288.49,181.165L1287.94,180.463L1278.94,167.463L1278.4,166.548L1277.99,165.552L1276.35,160.642L1272.23,154.873L1264.51,146.295L1261.89,145.249L1258.7,145.249L1255.88,145.954L1238.4,153.725L1210.36,166.742L1196.28,172.777L1195.12,173.138L1184.88,175.187L1175.63,176.214L1175,176.249L1165,176.249L1164.58,176.209L1164.35,177.228L1163.4,188.631L1162.41,202.477L1161.46,223.376L1162.27,227.404L1162.42,229L1162.42,237L1162.2,238.876L1161.56,240.625L1160.54,242.126L1159.21,243.278L1157.66,244.002L1156.47,244.179L1156.17,245.084L1155.35,249.172L1154.39,259.74L1154,261.588L1153.2,263.259L1152.04,264.637L1150.6,265.628L1146.6,267.628L1145.33,268.092L1144,268.249L1124,268.249L1122.3,267.99L1120.71,267.229L1119.37,266.022L1118.35,264.455L1117.74,262.641L1117.58,260.709L1117.88,258.798L1118.62,257.044L1119.74,255.575L1121.76,253.552L1121.66,253.2L1121.61,251.246L1122.02,249.348L1122.87,247.642L1128.87,238.642L1129.89,237.429L1131.13,236.514L1132.53,235.944L1134,235.751L1137.51,235.751L1137.53,235.578L1136.6,220.609L1132.64,175.156L1132,171.931L1129.65,168.015L1118.62,148.965L1118.28,148.308L1113.28,137.308L1112.82,135.968L1111.82,131.968L1111.58,130.088L1111.78,128.201L1112.4,126.438L1113.94,123.365L1114.73,119.404L1114.99,118.448L1116,115.416L1113.26,109.25L1112.91,108.325L1109.91,98.324L1109.66,97.178L1109.58,96L1109.58,78.509L1108.74,71.804L1107.06,66.77L1105.9,63.883L1101.06,60.249L1098,60.249L1096.88,60.138L1091.88,59.138L1090.61,58.729L1089.44,58.037L1085.9,55.378L1080.4,52.628L1079.73,52.241L1073.73,48.241L1072.42,47.087L1071.42,45.593L1070.79,43.859L1070.58,42L1070.58,26L1070.82,24.003L1071.55,22.161L1072.7,20.615L1074.18,19.487L1075.88,18.862L1080.88,17.862L1082.06,17.751L1083.24,17.887L1091.91,19.813L1101.28,20.751L1101.59,20.751L1102.68,18.936L1103.82,17.497L1105.25,16.448L1106.88,15.862L1111.88,14.862L1113,14.751L1119,14.751L1120.82,15.048ZM1113,22L1108,23L1105,28L1101,28L1091,27L1082,25L1077,26L1077,42L1083,46L1089,49L1093,52L1098,53L1103,53L1111,59L1113,64L1115,70L1116,78L1116,96L1119,106L1123,115L1121,121L1120,126L1118,130L1119,134L1124,145L1135,164L1138,169L1139,174L1143,220L1144,236L1143,242L1139,243L1134,243L1128,252L1132,251L1130,253L1128,257L1124,261L1144,261L1148,259L1149,248L1150,243L1151,240L1153,237L1156,237L1156,229L1155,224L1156,202L1157,188L1158,176L1160,167L1165,169L1175,169L1184,168L1194,166L1208,160L1236,147L1254,139L1258,138L1263,138L1268,140L1277,150L1282,157L1284,163L1293,176L1302,186L1310,195L1315,203L1317,209L1318,211L1318,226L1316,229L1314,231L1309,233L1309,235L1304,239L1306,240L1309,242L1318,242L1320,239L1323,238L1322,233L1323,223L1324,219L1324,216L1326,216L1328,218L1328,237L1327,241L1324,244L1319,247L1318,249L1314,255L1319,256L1329,257L1333,255L1333,243L1334,236L1335,228L1337,223L1338,217L1339,211L1340,206L1338,203L1331,195L1327,192L1321,184L1318,175L1316,169L1316,160L1315,153L1315,147L1316,143L1318,134L1319,126L1319,122L1317,117L1316,114L1318,114L1321,116L1324,122L1327,127L1330,134L1333,139L1338,144L1341,146L1340,143L1340,139L1337,133L1334,128L1332,123L1329,115L1326,109L1320,102L1314,97L1307,94L1295,90L1286,87L1271,85L1255,86L1240,88L1232,89L1221,91L1212,93L1205,94L1194,94L1190,92L1183,90L1176,89L1174,87L1170,86L1168,85L1163,84L1162,80L1159,79L1155,74L1152,66L1152,59L1149,50L1146,44L1143,39L1142,33L1139,29L1133,26L1125,24L1119,22L1113,22Z" style="fill:rgb(28,29,33);"/>
        </g>
    </g>
</svg>
