<?xml version="1.0" encoding="UTF-8" standalone="no"?>
<!DOCTYPE svg PUBLIC "-//W3C//DTD SVG 1.1//EN" "http://www.w3.org/Graphics/SVG/1.1/DTD/svg11.dtd">
<svg width="100%" height="100%" viewBox="0 0 468 378" version="1.1" xmlns="http://www.w3.org/2000/svg" xmlns:xlink="http://www.w3.org/1999/xlink" xml:space="preserve" xmlns:serif="http://www.serif.com/" style="fill-rule:evenodd;clip-rule:evenodd;stroke-linejoin:round;stroke-miterlimit:1.41421;">
    <g transform="matrix(1,0,0,1,-1031.3,-1332.31)">
        <g id="M" transform="matrix(1.72953,0,0,1.53271,-825.849,1304.15)">
            <path d="M1077,42L1077,34L1077,26L1082,25L1091,27L1101,28L1105,28L1108,23L1113,22L1119,22L1125,24L1133,26L1139,29L1142,33L1143,39L1146,44L1149,50L1152,59L1152,66L1155,74L1159,79L1162,80L1163,84L1168,85L1170,86L1174,87L1176,89L1183,90L1190,92L1194,94L1205,94L1212,93L1221,91L1232,89L1240,88L1255,86L1271,85L1286,87L1307,94L1314,97L1320,102L1326,109L1329,115L1332,123L1334,128L1337,133L1340,139L1340,143L1341,146L1338,144L1333,139L1330,134L1327,127L1324,122L1321,116L1318,114L1316,114L1317,117L1319,122L1319,126L1318,134L1316,143L1315,147L1315,153L1316,160L1316,169L1321,184L1327,192L1331,195L1338,203L1340,206L1339,211L1338,217L1337,223L1335,228L1334,236L1333,243L1333,255L1329,257L1319,256L1314,255L1318,249L1319,247L1324,244L1327,241L1328,237L1328,228L1328,218L1326,216L1324,216L1324,219L1323,223L1322,233L1323,238L1320,239L1318,242L1309,242L1306,240L1304,239L1309,235L1309,233L1314,231L1316,229L1318,226L1318,217L1318,211L1317,209L1315,203L1310,195L1302,186L1293,176L1284,163L1282,157L1277,150L1268,140L1263,138L1258,138L1254,139L1236,147L1208,160L1194,166L1184,168L1175,169L1165,169L1160,167L1158,176L1157,188L1156,202L1155,224L1156,229L1156,237L1153,237L1151,240L1150,243L1149,248L1148,259L1144,261L1140,261L1124,261L1128,257L1130,253L1132,251L1128,252L1134,243L1139,243L1143,242L1144,236L1143,220L1139,174L1138,169L1135,164L1124,145L1119,134L1118,130L1120,126L1121,121L1123,115L1119,106L1116,96L1116,78L1115,70L1113,64L1111,59L1107,56L1103,53L1098,53L1093,52L1089,49L1083,46L1077,42Z" style="fill:rgb(93,217,193);"/>
            <path d="M1119.91,18.524L1125.8,20.488L1133.69,22.461L1134.3,22.686L1140.3,25.686L1140.92,26.099L1141.45,26.658L1144.45,30.658L1144.9,31.443L1145.16,32.33L1146.03,37.591L1148.73,42.09L1151.8,48.219L1152.01,48.724L1155.01,57.724L1155.21,59L1155.21,65.265L1157.75,72.025L1160.78,75.813L1162.91,76.524L1163.88,77.057L1164.63,77.92L1165.09,79.016L1165.54,80.828L1168.56,81.431L1169.3,81.686L1171.01,82.539L1174.69,83.461L1175.46,83.771L1176.13,84.287L1177.39,85.545L1183.4,86.404L1183.79,86.486L1190.79,88.486L1191.3,88.686L1194.68,90.375L1204.8,90.375L1211.49,89.42L1220.43,87.432L1231.57,85.407L1239.63,84.399L1254.72,82.387L1270.82,81.381L1271.38,81.4L1286.38,83.4L1286.91,83.524L1295.91,86.524L1308.03,90.563L1315.14,93.611L1315.91,94.084L1321.91,99.084L1322.31,99.48L1328.31,106.48L1328.8,107.219L1331.8,113.219L1331.96,113.587L1334.94,121.548L1336.81,126.225L1339.73,131.09L1342.8,137.219L1343.11,138.079L1343.21,139L1343.21,142.341L1344.01,144.724L1344.21,146.185L1343.88,147.614L1343.07,148.776L1341.91,149.476L1340.61,149.597L1339.37,149.121L1336.37,147.121L1335.87,146.713L1330.87,141.713L1330.34,141.032L1327.34,136.032L1327.11,135.578L1324.21,128.815L1322.21,125.486L1322.21,126L1322.18,126.506L1321.18,134.506L1321.12,134.882L1319.1,143.933L1318.21,147.501L1318.21,152.71L1319.17,159.423L1319.21,160L1319.21,168.341L1321.01,173.724L1323.81,182.137L1329.16,189.266L1332.78,191.981L1333.29,192.453L1340.29,200.453L1340.57,200.821L1342.57,203.821L1343.01,204.737L1343.2,205.757L1343.13,206.798L1342.15,211.734L1341.16,217.67L1340.16,223.67L1339.93,224.491L1338.12,229.019L1337.18,236.542L1336.21,243.29L1336.21,255L1335.98,256.36L1335.31,257.521L1334.3,258.314L1330.3,260.314L1329.53,260.576L1328.72,260.61L1318.58,259.597L1313.44,258.569L1312.23,258.025L1311.31,256.984L1310.84,255.617L1310.88,254.149L1311.43,252.821L1315.31,247.011L1316,245.625L1309,245.625L1308.15,245.496L1307.37,245.121L1304.53,243.228L1302.7,242.314L1301.77,241.606L1301.11,240.58L1300.8,239.361L1300.89,238.098L1301.35,236.945L1302.14,236.043L1305.79,233.127L1305.79,233L1306.05,231.555L1306.81,230.35L1307.93,229.584L1312.34,227.819L1313.63,226.529L1314.79,224.789L1314.79,211.952L1314.2,210.781L1313.99,210.276L1312.14,204.71L1307.54,197.345L1299.74,188.575L1290.75,178.583L1290.47,178.231L1281.47,165.231L1280.99,164.276L1279.17,158.821L1274.62,152.437L1266.26,143.147L1262.45,141.625L1258.35,141.625L1254.94,142.477L1237.2,150.362L1209.18,163.371L1195.14,169.388L1194.56,169.569L1184.44,171.593L1175.32,172.607L1175,172.625L1165,172.625L1163.93,172.416L1162.26,171.748L1161.17,176.614L1160.2,188.315L1159.21,202.239L1158.23,223.688L1159.13,228.202L1159.21,229L1159.21,237L1158.97,238.387L1158.27,239.563L1157.23,240.349L1156,240.625L1154.6,240.625L1153.84,241.763L1153.09,244.042L1152.18,248.586L1151.19,259.37L1150.89,260.585L1150.23,261.608L1149.3,262.314L1145.3,264.314L1144,264.625L1124,264.625L1122.74,264.335L1121.68,263.511L1121,262.286L1120.79,260.854L1121.1,259.447L1121.87,258.287L1125.47,254.69L1125.64,254.351L1125.3,253.962L1124.83,252.6L1124.88,251.141L1125.43,249.821L1131.43,240.821L1132.14,240.044L1133.02,239.547L1134,239.375L1138.65,239.375L1140.24,238.979L1140.77,235.789L1139.8,220.305L1135.82,174.578L1135,170.465L1132.33,166.007L1121.31,146.982L1121.14,146.654L1116.14,135.654L1115.91,134.984L1114.91,130.984L1114.81,129.568L1115.2,128.219L1116.97,124.683L1117.87,120.202L1117.99,119.724L1119.5,115.208L1116.13,107.625L1115.96,107.162L1112.96,97.162L1112.79,96L1112.79,78.254L1111.87,70.902L1110.03,65.385L1108.45,61.442L1105.22,59.019L1102.03,56.625L1098,56.625L1097.44,56.569L1092.44,55.569L1091.22,55.019L1087.45,52.189L1081.7,49.314L1081.37,49.121L1075.37,45.121L1074.53,44.311L1073.98,43.228L1073.79,42L1073.79,26L1073.98,24.761L1074.54,23.671L1075.39,22.862L1076.44,22.431L1081.44,21.431L1082.62,21.444L1091.45,23.407L1101.14,24.375L1103.3,24.375L1105.34,20.968L1106.25,19.959L1107.44,19.431L1112.44,18.431L1113,18.375L1119,18.375L1119.91,18.524ZM1113,22L1108,23L1105,28L1101,28L1091,27L1082,25L1077,26L1077,42L1083,46L1089,49L1093,52L1098,53L1103,53L1111,59L1113,64L1115,70L1116,78L1116,96L1119,106L1123,115L1121,121L1120,126L1118,130L1119,134L1124,145L1135,164L1138,169L1139,174L1143,220L1144,236L1143,242L1139,243L1134,243L1128,252L1132,251L1130,253L1128,257L1124,261L1144,261L1148,259L1149,248L1150,243L1151,240L1153,237L1156,237L1156,229L1155,224L1156,202L1157,188L1158,176L1160,167L1165,169L1175,169L1184,168L1194,166L1208,160L1236,147L1254,139L1258,138L1263,138L1268,140L1277,150L1282,157L1284,163L1293,176L1302,186L1310,195L1315,203L1317,209L1318,211L1318,226L1316,229L1314,231L1309,233L1309,235L1304,239L1306,240L1309,242L1318,242L1320,239L1323,238L1322,233L1323,223L1324,219L1324,216L1326,216L1328,218L1328,237L1327,241L1324,244L1319,247L1318,249L1314,255L1319,256L1329,257L1333,255L1333,243L1334,236L1335,228L1337,223L1338,217L1339,211L1340,206L1338,203L1331,195L1327,192L1321,184L1318,175L1316,169L1316,160L1315,153L1315,147L1316,143L1318,134L1319,126L1319,122L1317,117L1316,114L1318,114L1321,116L1324,122L1327,127L1330,134L1333,139L1338,144L1341,146L1340,143L1340,139L1337,133L1334,128L1332,123L1329,115L1326,109L1320,102L1314,97L1307,94L1295,90L1286,87L1271,85L1255,86L1240,88L1232,89L1221,91L1212,93L1205,94L1194,94L1190,92L1183,90L1176,89L1174,87L1170,86L1168,85L1163,84L1162,80L1159,79L1155,74L1152,66L1152,59L1149,50L1146,44L1143,39L1142,33L1139,29L1133,26L1125,24L1119,22L1113,22Z" style="fill:rgb(28,29,33);"/>
        </g>
    </g>
</svg>
