<?xml version="1.0" encoding="UTF-8" standalone="no"?>
<!DOCTYPE svg PUBLIC "-//W3C//DTD SVG 1.1//EN" "http://www.w3.org/Graphics/SVG/1.1/DTD/svg11.dtd">
<svg width="100%" height="100%" viewBox="0 0 342 191" version="1.1" xmlns="http://www.w3.org/2000/svg" xmlns:xlink="http://www.w3.org/1999/xlink" xml:space="preserve" xmlns:serif="http://www.serif.com/" style="fill-rule:evenodd;clip-rule:evenodd;stroke-linejoin:round;stroke-miterlimit:1.41421;">
    <g transform="matrix(1,0,0,1,-481.889,-2427.74)">
        <g id="S" transform="matrix(1.26832,0,0,1.26832,-1641.58,632.765)">
            <path d="M1713,1436L1719,1434L1728,1432L1738,1433L1742,1433L1752,1428L1761,1424L1765,1425L1763,1431L1759,1441L1755,1449L1761,1454L1768,1456L1777,1461L1783,1464L1797,1464L1809,1466L1822,1464L1848,1460L1859,1458L1872,1458L1884,1463L1895,1468L1902,1475L1906,1481L1908,1488L1908,1496L1907,1504L1906,1511L1908,1516L1908,1530L1913,1535L1920,1538L1935,1545L1928,1547L1916,1547L1909,1547L1907,1552L1898,1552L1890,1551L1891,1546L1889,1542L1885,1541L1883,1534L1880,1530L1881,1523L1876,1517L1871,1515L1868,1515L1866,1519L1863,1521L1857,1522L1851,1524L1843,1527L1838,1529L1833,1529L1820,1530L1812,1532L1807,1534L1800,1536L1792,1536L1786,1536L1778,1536L1769,1533L1765,1536L1764,1540L1763,1544L1761,1546L1759,1548L1756,1551L1753,1555L1750,1557L1733,1557L1736,1551L1732,1548L1735,1543L1739,1540L1744,1540L1747,1535L1745,1531L1740,1528L1732,1526L1727,1523L1724,1521L1723,1515L1722,1507L1718,1500L1718,1494L1711,1485L1708,1479L1708,1473L1706,1469L1704,1466L1704,1460L1694,1450L1688,1441L1685,1434L1683,1427L1683,1424L1687,1424L1699,1428L1705,1431L1710,1435L1713,1436Z" style="fill:rgb(178,247,239);"/>
            <path d="M1688.4,1415.35L1689.77,1415.69L1695.77,1417.69L1701.77,1419.69L1702.92,1420.16L1708.92,1423.16L1710.47,1424.16L1713.52,1426.59L1716.23,1425.69L1717.1,1425.45L1726.1,1423.45L1727.48,1423.26L1728.87,1423.28L1738.44,1424.24L1739.93,1424.24L1748.26,1420.08L1757.44,1415.99L1759.28,1415.41L1761.21,1415.24L1763.12,1415.5L1767.12,1416.5L1769.35,1417.4L1771.25,1418.86L1772.68,1420.78L1773.54,1423.03L1773.75,1425.41L1773.31,1427.77L1771.23,1434.01L1767,1444.59L1766.12,1446.35L1770.41,1447.58L1772.26,1448.34L1781.09,1453.25L1785.07,1455.24L1797,1455.24L1798.44,1455.36L1809.06,1457.13L1820.67,1455.34L1846.55,1451.36L1857.43,1449.38L1859,1449.24L1872,1449.24L1873.72,1449.41L1875.37,1449.91L1887.5,1454.97L1898.62,1460.03L1899.99,1460.8L1901.19,1461.81L1908.19,1468.81L1909.29,1470.14L1913.29,1476.14L1913.95,1477.32L1914.42,1478.59L1916.42,1485.59L1916.76,1488L1916.76,1496L1916.69,1497.09L1915.68,1505.16L1915,1509.92L1916.13,1512.75L1916.6,1514.34L1916.76,1516L1916.76,1526.37L1918,1527.61L1923.58,1530L1938.7,1537.06L1940.68,1538.34L1942.26,1540.09L1943.3,1542.2L1943.75,1544.51L1943.56,1546.86L1942.76,1549.07L1941.39,1550.99L1939.56,1552.48L1937.41,1553.42L1930.41,1555.42L1928,1555.76L1914.84,1555.76L1913.82,1557.5L1911.91,1559.25L1909.57,1560.38L1907,1560.76L1898,1560.76L1896.91,1560.69L1888.91,1559.69L1886.6,1559.08L1884.54,1557.85L1882.89,1556.12L1881.77,1554.01L1881.27,1551.67L1881.41,1549.28L1881.48,1548.95L1880.75,1548.66L1878.91,1547.3L1877.49,1545.51L1876.58,1543.41L1875.02,1537.96L1872.99,1535.26L1871.87,1533.26L1871.3,1531.05L1871.33,1528.76L1871.78,1525.62L1871.72,1525.54L1870.86,1526.29L1867.86,1528.29L1866.22,1529.15L1864.44,1529.64L1859.12,1530.53L1853.92,1532.26L1846.16,1535.17L1841.25,1537.13L1839.66,1537.6L1838,1537.76L1833.34,1537.76L1821.41,1538.68L1814.7,1540.36L1810.25,1542.13L1809.41,1542.42L1802.41,1544.42L1800,1544.76L1778,1544.76L1776.6,1544.65L1775.23,1544.31L1772.2,1543.3L1771.5,1546.12L1770.62,1548.32L1769.19,1550.19L1765.19,1554.19L1762.63,1556.75L1760.01,1560.26L1759.02,1561.36L1757.86,1562.29L1754.86,1564.29L1752.54,1565.38L1750,1565.76L1733,1565.76L1730.49,1565.39L1728.19,1564.32L1726.29,1562.64L1724.96,1560.48L1724.3,1558.03L1724.37,1555.49L1725.08,1553.33L1724.94,1553.19L1723.74,1550.92L1723.25,1548.41L1723.51,1545.86L1724.49,1543.49L1727.49,1538.49L1728.5,1537.13L1729.74,1535.99L1731.27,1534.85L1729.88,1534.5L1727.49,1533.51L1722.31,1530.4L1719.14,1528.29L1717.36,1526.71L1716.07,1524.71L1715.36,1522.44L1714.33,1516.26L1713.52,1509.83L1710.39,1504.35L1709.53,1502.25L1709.24,1500L1709.24,1497.01L1704.09,1490.38L1703.16,1488.92L1700.16,1482.92L1699.47,1481.01L1699.24,1479L1699.24,1475.07L1698.41,1473.41L1696.71,1470.86L1695.62,1468.54L1695.24,1466L1695.24,1463.63L1687.81,1456.19L1686.71,1454.86L1680.71,1445.86L1679.95,1444.45L1676.95,1437.45L1676.58,1436.41L1674.58,1429.41L1674.24,1427L1674.24,1424L1674.54,1421.73L1675.41,1419.62L1676.81,1417.81L1678.62,1416.41L1680.73,1415.54L1683,1415.24L1687,1415.24L1688.4,1415.35ZM1683,1424L1683,1427L1685,1434L1688,1441L1694,1450L1704,1460L1704,1466L1706,1469L1708,1473L1708,1479L1711,1485L1718,1494L1718,1500L1722,1507L1723,1515L1724,1521L1727,1523L1732,1526L1740,1528L1745,1531L1747,1535L1744,1540L1739,1540L1735,1543L1732,1548L1736,1551L1733,1557L1750,1557L1753,1555L1756,1551L1759,1548L1761,1546L1763,1544L1764,1540L1765,1536L1769,1533L1778,1536L1800,1536L1807,1534L1812,1532L1820,1530L1833,1529L1838,1529L1843,1527L1851,1524L1857,1522L1863,1521L1866,1519L1868,1515L1871,1515L1876,1517L1881,1523L1880,1530L1883,1534L1885,1541L1889,1542L1891,1546L1890,1551L1898,1552L1907,1552L1909,1547L1928,1547L1935,1545L1920,1538L1913,1535L1908,1530L1908,1516L1906,1511L1907,1504L1908,1496L1908,1488L1906,1481L1902,1475L1895,1468L1884,1463L1872,1458L1859,1458L1848,1460L1822,1464L1809,1466L1797,1464L1783,1464L1777,1461L1768,1456L1761,1454L1755,1449L1759,1441L1763,1431L1765,1425L1761,1424L1752,1428L1742,1433L1738,1433L1728,1432L1719,1434L1713,1436L1710,1435L1705,1431L1699,1428L1693,1426L1687,1424L1683,1424Z" style="fill:rgb(28,29,33);"/>
        </g>
    </g>
</svg>
