<?xml version="1.0" encoding="UTF-8" standalone="no"?>
<!DOCTYPE svg PUBLIC "-//W3C//DTD SVG 1.1//EN" "http://www.w3.org/Graphics/SVG/1.1/DTD/svg11.dtd">
<svg width="100%" height="100%" viewBox="0 0 331 180" version="1.1" xmlns="http://www.w3.org/2000/svg" xmlns:xlink="http://www.w3.org/1999/xlink" xml:space="preserve" xmlns:serif="http://www.serif.com/" style="fill-rule:evenodd;clip-rule:evenodd;stroke-linejoin:round;stroke-miterlimit:1.41421;">
    <g transform="matrix(1,0,0,1,-487.444,-1529.94)">
        <g id="S" transform="matrix(1.26832,0,0,1.26832,-1641.58,-270.589)">
            <path d="M1713,1436L1719,1434L1728,1432L1738,1433L1742,1433L1752,1428L1761,1424L1765,1425L1763,1431L1759,1441L1755,1449L1761,1454L1768,1456L1777,1461L1783,1464L1797,1464L1809,1466L1822,1464L1848,1460L1859,1458L1872,1458L1884,1463L1895,1468L1902,1475L1906,1481L1908,1488L1908,1496L1907,1504L1906,1511L1908,1516L1908,1530L1913,1535L1920,1538L1935,1545L1928,1547L1916,1547L1909,1547L1907,1552L1898,1552L1890,1551L1891,1546L1889,1542L1885,1541L1883,1534L1880,1530L1881,1523L1876,1517L1871,1515L1868,1515L1866,1519L1863,1521L1857,1522L1851,1524L1843,1527L1838,1529L1833,1529L1820,1530L1812,1532L1807,1534L1800,1536L1792,1536L1786,1536L1778,1536L1769,1533L1765,1536L1764,1540L1763,1544L1761,1546L1759,1548L1756,1551L1753,1555L1750,1557L1733,1557L1736,1551L1732,1548L1735,1543L1739,1540L1744,1540L1747,1535L1745,1531L1740,1528L1732,1526L1727,1523L1724,1521L1723,1515L1722,1507L1718,1500L1718,1494L1711,1485L1708,1479L1708,1473L1706,1469L1704,1466L1704,1460L1694,1450L1688,1441L1685,1434L1683,1427L1683,1424L1687,1424L1699,1428L1705,1431L1710,1435L1713,1436Z" style="fill:rgb(93,217,193);"/>
            <path d="M1688.38,1419.85L1694.38,1421.85L1700.38,1423.85L1700.96,1424.08L1706.96,1427.08L1707.74,1427.58L1712.13,1431.09L1713,1431.38L1717.62,1429.85L1718.05,1429.72L1727.05,1427.72L1728.44,1427.64L1738.22,1428.62L1740.97,1428.62L1750.13,1424.04L1759.22,1420L1760.62,1419.64L1762.06,1419.75L1766.06,1420.75L1767.67,1421.53L1768.84,1422.89L1769.36,1424.61L1769.15,1426.38L1767.12,1432.51L1763,1442.8L1760.47,1447.86L1763.09,1450.04L1769.2,1451.79L1770.13,1452.17L1779.04,1457.12L1784.03,1459.62L1797,1459.62L1797.72,1459.68L1809.03,1461.56L1821.33,1459.67L1847.28,1455.68L1858.22,1453.69L1859,1453.62L1872,1453.62L1873.68,1453.96L1885.75,1458.98L1896.81,1464.01L1898.1,1464.9L1905.1,1471.9L1905.64,1472.57L1909.64,1478.57L1910.21,1479.8L1912.21,1486.8L1912.38,1488L1912.38,1496L1912.35,1496.54L1911.34,1504.58L1910.5,1510.46L1912.07,1514.37L1912.38,1516L1912.38,1528.19L1915.5,1531.31L1921.79,1534L1936.85,1541.03L1938.27,1542.08L1939.15,1543.6L1939.37,1545.35L1938.88,1547.04L1937.76,1548.4L1936.2,1549.21L1929.2,1551.21L1928,1551.38L1911.97,1551.38L1911.07,1553.63L1910.12,1555.07L1908.69,1556.04L1907,1556.38L1898,1556.38L1897.46,1556.35L1889.46,1555.35L1887.77,1554.77L1886.45,1553.56L1885.72,1551.93L1885.7,1550.14L1886.41,1546.62L1885.98,1545.76L1883.94,1545.25L1882.55,1544.63L1881.45,1543.57L1880.79,1542.2L1879.01,1535.98L1876.5,1532.63L1875.76,1531.09L1875.66,1529.38L1876.39,1524.31L1873.34,1520.65L1870.62,1519.56L1869.92,1520.96L1869.28,1521.9L1868.43,1522.64L1865.43,1524.64L1864.61,1525.07L1863.72,1525.32L1858.06,1526.26L1852.46,1528.13L1844.58,1531.09L1839.63,1533.07L1838,1533.38L1833.17,1533.38L1820.7,1534.34L1813.35,1536.18L1808.63,1538.07L1808.2,1538.21L1801.2,1540.21L1800,1540.38L1778,1540.38L1776.62,1540.15L1769.79,1537.88L1768.87,1538.57L1768.25,1541.06L1767.25,1545.06L1766.81,1546.16L1766.1,1547.1L1762.1,1551.1L1759.32,1553.88L1756.5,1557.63L1755.43,1558.64L1752.43,1560.64L1751.27,1561.19L1750,1561.38L1733,1561.38L1731.27,1561.02L1729.82,1560.01L1728.89,1558.5L1728.63,1556.75L1729.08,1555.04L1730.45,1552.31L1729.37,1551.5L1728.29,1550.33L1727.7,1548.84L1727.68,1547.24L1728.24,1545.75L1731.24,1540.75L1732.37,1539.5L1736.37,1536.5L1737.62,1535.85L1739,1535.62L1741.52,1535.62L1742.01,1534.81L1741.65,1534.1L1738.31,1532.09L1730.94,1530.25L1729.75,1529.76L1724.66,1526.7L1721.57,1524.64L1720.32,1523.38L1719.68,1521.72L1718.66,1515.63L1717.76,1508.41L1714.2,1502.17L1713.77,1501.12L1713.62,1500L1713.62,1495.5L1707.54,1487.69L1707.08,1486.96L1704.08,1480.96L1703.74,1480.01L1703.62,1479L1703.62,1474.03L1702.2,1471.2L1700.36,1468.43L1699.81,1467.27L1699.62,1466L1699.62,1461.81L1690.9,1453.1L1690.36,1452.43L1684.36,1443.43L1683.97,1442.73L1680.97,1435.73L1680.79,1435.2L1678.79,1428.2L1678.62,1427L1678.62,1424L1678.95,1422.32L1679.9,1420.9L1681.32,1419.95L1683,1419.62L1687,1419.62L1688.38,1419.85ZM1683,1424L1683,1427L1685,1434L1688,1441L1694,1450L1704,1460L1704,1466L1706,1469L1708,1473L1708,1479L1711,1485L1718,1494L1718,1500L1722,1507L1723,1515L1724,1521L1727,1523L1732,1526L1740,1528L1745,1531L1747,1535L1744,1540L1739,1540L1735,1543L1732,1548L1736,1551L1733,1557L1750,1557L1753,1555L1756,1551L1763,1544L1764,1540L1765,1536L1769,1533L1778,1536L1800,1536L1807,1534L1812,1532L1820,1530L1833,1529L1838,1529L1843,1527L1851,1524L1857,1522L1863,1521L1866,1519L1868,1515L1871,1515L1876,1517L1881,1523L1880,1530L1883,1534L1885,1541L1889,1542L1891,1546L1890,1551L1898,1552L1907,1552L1909,1547L1928,1547L1935,1545L1920,1538L1913,1535L1908,1530L1908,1516L1906,1511L1907,1504L1908,1496L1908,1488L1906,1481L1902,1475L1895,1468L1884,1463L1872,1458L1859,1458L1848,1460L1822,1464L1809,1466L1797,1464L1783,1464L1777,1461L1768,1456L1761,1454L1755,1449L1759,1441L1763,1431L1765,1425L1761,1424L1752,1428L1742,1433L1738,1433L1728,1432L1719,1434L1713,1436L1710,1435L1705,1431L1699,1428L1693,1426L1687,1424L1683,1424Z" style="fill:rgb(28,29,33);"/>
        </g>
    </g>
</svg>
