<?xml version="1.0" encoding="UTF-8" standalone="no"?>
<!DOCTYPE svg PUBLIC "-//W3C//DTD SVG 1.1//EN" "http://www.w3.org/Graphics/SVG/1.1/DTD/svg11.dtd">
<svg width="100%" height="100%" viewBox="0 0 733 613" version="1.1" xmlns="http://www.w3.org/2000/svg" xmlns:xlink="http://www.w3.org/1999/xlink" xml:space="preserve" xmlns:serif="http://www.serif.com/" style="fill-rule:evenodd;clip-rule:evenodd;stroke-linejoin:round;stroke-miterlimit:1.41421;">
    <g transform="matrix(1,0,0,1,-2716.63,-2007.89)">
        <g id="XL" transform="matrix(-2.60168,0,0,2.60168,7824.44,-902.688)">
            <path d="M1922,1123L1935,1127L1936,1132L1939,1135L1959,1135L1958,1148L1952,1158L1953,1163L1947,1171L1929,1169L1923,1170L1914,1180L1909,1198L1905,1203L1904,1223L1894,1239L1885,1255L1882,1317L1885,1326L1893,1328L1894,1334L1891,1337L1893,1346L1890,1349L1878,1348L1876,1343L1874,1340L1874,1334L1871,1322L1868,1321L1868,1292L1867,1275L1862,1255L1855,1255L1846,1255L1797,1243L1766,1236L1764,1249L1759,1264L1748,1279L1739,1296L1732,1318L1734,1335L1742,1338L1747,1344L1744,1349L1732,1350L1725,1342L1725,1331L1718,1332L1715,1326L1715,1310L1712,1291L1725,1273L1730,1259L1730,1244L1722,1222L1719,1235L1715,1245L1709,1252L1704,1255L1696,1255L1690,1251L1687,1245L1686,1234L1687,1233L1688,1237L1689,1243L1693,1249L1696,1251L1701,1251L1704,1250L1708,1246L1711,1240L1713,1236L1712,1221L1714,1210L1720,1198L1732,1190L1745,1180L1759,1176L1777,1175L1794,1176L1810,1177L1828,1179L1846,1176L1850,1173L1857,1173L1863,1169L1871,1167L1886,1151L1893,1140L1894,1135L1903,1127L1910,1124L1922,1123Z" style="fill:rgb(178,247,239);"/>
            <path d="M1909.64,1119.74L1908.97,1119.86L1908.32,1120.08L1901.32,1123.08L1900.71,1123.39L1900.16,1123.81L1891.16,1131.81L1890.55,1132.49L1890.09,1133.29L1889.81,1134.16L1888.97,1138.38L1882.61,1148.37L1868.74,1163.16L1861.96,1164.86L1861.27,1165.09L1860.63,1165.45L1855.71,1168.73L1850,1168.73L1849.09,1168.83L1848.22,1169.12L1847.44,1169.58L1844.27,1171.96L1827.88,1174.69L1810.37,1172.74L1794.26,1171.74L1777.25,1170.74L1776.76,1170.74L1758.76,1171.74L1757.83,1171.89L1743.83,1175.89L1743.08,1176.19L1742.4,1176.62L1729.51,1186.53L1717.63,1194.45L1716.8,1195.17L1716.18,1196.09L1710.18,1208.09L1709.8,1209.24L1707.8,1220.24L1707.74,1221.28L1708.66,1235.13L1707.18,1238.09L1704.49,1243.47L1701.69,1246.27L1700.31,1246.73L1697.29,1246.73L1696.08,1245.92L1693.06,1241.39L1692.18,1236.13L1691.14,1231.96L1690.73,1230.92L1690.06,1230.02L1689.17,1229.32L1688.14,1228.88L1687.03,1228.73L1685.91,1228.87L1684.87,1229.3L1683.98,1229.98L1682.98,1230.98L1682.24,1231.98L1681.82,1233.15L1681.75,1234.39L1682.75,1245.39L1682.89,1246.17L1683.18,1246.91L1686.18,1252.91L1686.8,1253.83L1687.63,1254.55L1693.63,1258.55L1694.76,1259.09L1696,1259.27L1704,1259.27L1705.14,1259.12L1706.2,1258.66L1711.2,1255.66L1711.76,1255.26L1712.24,1254.78L1718.24,1247.78L1718.65,1247.21L1718.97,1246.59L1722.86,1236.86L1725.73,1244.75L1725.73,1258.26L1721.18,1270.99L1708.54,1288.5L1708.01,1289.48L1707.75,1290.56L1707.78,1291.67L1710.73,1310.34L1710.73,1326L1710.84,1326.98L1711.18,1327.91L1714.18,1333.91L1714.77,1334.8L1715.56,1335.51L1716.51,1336L1717.54,1336.25L1718.6,1336.23L1720.73,1335.92L1720.73,1342L1720.85,1343.01L1721.21,1343.97L1721.79,1344.81L1728.79,1352.81L1729.53,1353.48L1730.4,1353.96L1731.36,1354.22L1732.36,1354.26L1744.36,1353.26L1745.34,1353.05L1746.26,1352.63L1747.04,1352L1747.66,1351.2L1750.66,1346.2L1751.09,1345.24L1751.27,1344.2L1751.18,1343.15L1750.85,1342.15L1750.28,1341.27L1745.28,1335.27L1744.47,1334.52L1743.5,1334L1737.94,1331.91L1736.35,1318.42L1742.95,1297.66L1751.63,1281.27L1762.44,1266.53L1762.79,1265.96L1763.05,1265.35L1768.05,1250.35L1768.22,1249.65L1769.53,1241.17L1796.02,1247.16L1844.98,1259.15L1846,1259.27L1858.67,1259.27L1862.76,1275.65L1863.73,1292.12L1863.73,1321L1863.86,1322.06L1864.25,1323.05L1864.87,1323.91L1865.69,1324.59L1866.65,1325.05L1867.42,1325.31L1869.73,1334.53L1869.73,1340L1869.91,1341.24L1870.45,1342.37L1872.2,1345L1874.04,1349.59L1874.62,1350.61L1875.46,1351.43L1876.5,1352L1877.64,1352.26L1889.64,1353.26L1890.88,1353.18L1892.03,1352.76L1893.02,1352.02L1896.02,1349.02L1896.67,1348.17L1897.1,1347.19L1897.27,1346.14L1897.17,1345.07L1895.68,1338.36L1897.02,1337.02L1897.65,1336.22L1898.07,1335.3L1898.26,1334.31L1898.21,1333.3L1897.21,1327.3L1896.84,1326.12L1896.14,1325.1L1895.18,1324.33L1894.04,1323.86L1888.31,1322.42L1886.3,1316.41L1889.22,1256.21L1897.67,1241.18L1907.62,1225.26L1908.08,1224.28L1908.27,1223.21L1909.2,1204.59L1912.34,1200.67L1912.8,1199.94L1913.12,1199.14L1917.85,1182.11L1925.17,1173.97L1929.12,1173.31L1946.53,1175.25L1947.63,1175.22L1948.7,1174.92L1949.64,1174.35L1950.42,1173.56L1956.42,1165.56L1956.99,1164.52L1957.26,1163.35L1957.19,1162.16L1956.51,1158.78L1961.66,1150.2L1962.07,1149.3L1962.26,1148.33L1963.26,1135.33L1963.19,1134.16L1962.8,1133.06L1962.13,1132.1L1961.23,1131.36L1960.16,1130.89L1959,1130.73L1940.77,1130.73L1939.93,1129.89L1939.19,1126.16L1938.82,1125.08L1938.17,1124.14L1937.3,1123.4L1936.26,1122.92L1923.26,1118.92L1922.46,1118.75L1921.64,1118.74L1909.64,1119.74ZM1935,1127L1936,1132L1939,1135L1959,1135L1958,1148L1952,1158L1953,1163L1947,1171L1929,1169L1923,1170L1914,1180L1909,1198L1905,1203L1904,1223L1894,1239L1885,1255L1882,1317L1885,1326L1893,1328L1894,1334L1891,1337L1893,1346L1890,1349L1878,1348L1876,1343L1874,1340L1874,1334L1871,1322L1868,1321L1868,1292L1867,1275L1862,1255L1846,1255L1797,1243L1766,1236L1764,1249L1759,1264L1748,1279L1739,1296L1732,1318L1734,1335L1742,1338L1747,1344L1744,1349L1732,1350L1725,1342L1725,1331L1718,1332L1715,1326L1715,1310L1712,1291L1725,1273L1730,1259L1730,1244L1722,1222L1719,1235L1715,1245L1709,1252L1704,1255L1696,1255L1690,1251L1687,1245L1686,1234L1687,1233L1688,1237L1689,1243L1693,1249L1696,1251L1701,1251L1704,1250L1708,1246L1711,1240L1713,1236L1712,1221L1714,1210L1720,1198L1732,1190L1745,1180L1759,1176L1777,1175L1794,1176L1810,1177L1828,1179L1846,1176L1850,1173L1857,1173L1863,1169L1871,1167L1886,1151L1893,1140L1894,1135L1903,1127L1910,1124L1922,1123L1935,1127Z" style="fill:rgb(28,29,33);"/>
        </g>
    </g>
</svg>
