<?xml version="1.0" encoding="UTF-8" standalone="no"?>
<!DOCTYPE svg PUBLIC "-//W3C//DTD SVG 1.1//EN" "http://www.w3.org/Graphics/SVG/1.1/DTD/svg11.dtd">
<svg width="100%" height="100%" viewBox="0 0 722 602" version="1.1" xmlns="http://www.w3.org/2000/svg" xmlns:xlink="http://www.w3.org/1999/xlink" xml:space="preserve" xmlns:serif="http://www.serif.com/" style="fill-rule:evenodd;clip-rule:evenodd;stroke-linejoin:round;stroke-miterlimit:1.41421;">
    <g transform="matrix(1,0,0,1,-2722.19,-1110.09)">
        <g id="XL" transform="matrix(-2.60168,0,0,2.60168,7824.44,-1806.04)">
            <path d="M1922,1123L1935,1127L1936,1132L1939,1135L1959,1135L1958,1148L1952,1158L1953,1163L1947,1171L1929,1169L1923,1170L1914,1180L1909,1198L1905,1203L1904,1223L1894,1239L1885,1255L1882,1317L1885,1326L1893,1328L1894,1334L1891,1337L1893,1346L1890,1349L1878,1348L1876,1343L1874,1340L1874,1334L1871,1322L1868,1321L1868,1292L1867,1275L1862,1255L1855,1255L1846,1255L1797,1243L1766,1236L1764,1249L1759,1264L1748,1279L1739,1296L1732,1318L1734,1335L1742,1338L1747,1344L1744,1349L1732,1350L1725,1342L1725,1331L1718,1332L1715,1326L1715,1310L1712,1291L1725,1273L1730,1259L1730,1244L1722,1222L1719,1235L1715,1245L1709,1252L1704,1255L1696,1255L1690,1251L1687,1245L1686,1234L1687,1233L1688,1237L1689,1243L1693,1249L1696,1251L1701,1251L1704,1250L1708,1246L1711,1240L1713,1236L1712,1221L1714,1210L1720,1198L1732,1190L1745,1180L1759,1176L1777,1175L1794,1176L1810,1177L1828,1179L1846,1176L1850,1173L1857,1173L1863,1169L1871,1167L1886,1151L1893,1140L1894,1135L1903,1127L1910,1124L1922,1123Z" style="fill:rgb(93,217,193);"/>
            <path d="M1909.82,1121.87L1909.16,1122.04L1902.16,1125.04L1901.58,1125.4L1892.58,1133.4L1892.15,1133.94L1891.91,1134.58L1890.98,1139.19L1884.31,1149.68L1869.87,1165.08L1862.48,1166.93L1861.82,1167.22L1856.35,1170.87L1850,1170.87L1849.33,1170.97L1848.72,1171.29L1845.13,1173.98L1827.94,1176.85L1810.18,1174.87L1794.13,1173.87L1777.12,1172.87L1776.88,1172.87L1758.88,1173.87L1758.41,1173.95L1744.41,1177.95L1743.7,1178.31L1730.76,1188.26L1718.82,1196.22L1718.4,1196.59L1718.09,1197.05L1712.09,1209.05L1711.9,1209.62L1709.9,1220.62L1709.87,1221.14L1710.83,1235.56L1709.09,1239.05L1706.25,1244.74L1702.85,1248.13L1700.65,1248.87L1696.65,1248.87L1694.54,1247.46L1692.78,1244.82L1691.03,1242.2L1690.09,1236.57L1689.07,1232.48L1688.77,1231.8L1688.24,1231.27L1687.57,1230.94L1686.83,1230.87L1686.1,1231.06L1685.49,1231.49L1684.49,1232.49L1684.12,1232.99L1683.91,1233.57L1683.87,1234.19L1684.87,1245.19L1685.09,1245.95L1688.09,1251.95L1688.4,1252.41L1688.82,1252.78L1694.82,1256.78L1695.38,1257.04L1696,1257.13L1704,1257.13L1704.57,1257.06L1705.1,1256.83L1710.1,1253.83L1710.62,1253.39L1716.62,1246.39L1716.98,1245.79L1720.98,1235.79L1721.08,1235.48L1722.46,1229.51L1727.87,1244.38L1727.87,1258.63L1723.09,1272L1710.27,1289.75L1709.92,1290.5L1709.89,1291.33L1712.87,1310.17L1712.87,1326L1712.92,1326.49L1713.09,1326.95L1716.09,1332.95L1716.64,1333.65L1717.42,1334.06L1718.3,1334.11L1722.87,1333.46L1722.87,1342L1723,1342.75L1723.39,1343.41L1730.39,1351.41L1730.9,1351.83L1731.52,1352.08L1732.18,1352.13L1744.18,1351.13L1744.83,1350.97L1745.4,1350.61L1745.83,1350.1L1748.83,1345.1L1749.12,1344.27L1749.05,1343.4L1748.64,1342.63L1743.64,1336.63L1743.24,1336.26L1742.75,1336L1735.97,1333.46L1734.17,1318.21L1740.98,1296.83L1749.81,1280.14L1760.72,1265.26L1761.03,1264.67L1766.03,1249.67L1766.11,1249.33L1767.76,1238.59L1796.51,1245.08L1845.49,1257.07L1846,1257.13L1860.33,1257.13L1864.88,1275.32L1865.87,1292.06L1865.87,1321L1866.05,1321.86L1866.56,1322.58L1867.33,1323.03L1869.21,1323.65L1871.87,1334.26L1871.87,1340L1871.96,1340.62L1872.22,1341.18L1874.1,1344L1876.02,1348.79L1876.44,1349.45L1877.07,1349.92L1877.82,1350.13L1889.82,1351.13L1890.44,1351.09L1891.02,1350.88L1891.51,1350.51L1894.51,1347.51L1894.92,1346.93L1895.12,1346.25L1895.09,1345.54L1893.34,1337.68L1895.51,1335.51L1895.9,1334.96L1896.11,1334.32L1896.11,1333.65L1895.11,1327.65L1894.82,1326.88L1894.26,1326.28L1893.52,1325.93L1886.65,1324.21L1884.15,1316.7L1887.11,1255.61L1895.84,1240.09L1905.81,1224.13L1906.04,1223.64L1906.13,1223.11L1907.1,1203.8L1910.67,1199.33L1911.06,1198.57L1915.92,1181.06L1924.09,1171.98L1929.06,1171.15L1946.76,1173.12L1947.5,1173.08L1948.17,1172.79L1948.71,1172.28L1954.71,1164.28L1955,1163.76L1955.13,1163.18L1955.09,1162.58L1954.26,1158.39L1959.83,1149.1L1960.04,1148.65L1960.13,1148.16L1961.13,1135.16L1961.02,1134.3L1960.57,1133.55L1959.86,1133.04L1959,1132.87L1939.88,1132.87L1937.97,1130.95L1937.09,1126.58L1936.81,1125.87L1936.3,1125.31L1935.63,1124.96L1922.63,1120.96L1921.82,1120.87L1909.82,1121.87ZM1935,1127L1936,1132L1939,1135L1959,1135L1958,1148L1952,1158L1953,1163L1947,1171L1929,1169L1923,1170L1914,1180L1909,1198L1905,1203L1904,1223L1894,1239L1885,1255L1882,1317L1885,1326L1893,1328L1894,1334L1891,1337L1893,1346L1890,1349L1878,1348L1876,1343L1874,1340L1874,1334L1871,1322L1868,1321L1868,1292L1867,1275L1862,1255L1846,1255L1797,1243L1766,1236L1764,1249L1759,1264L1748,1279L1739,1296L1732,1318L1734,1335L1742,1338L1747,1344L1744,1349L1732,1350L1725,1342L1725,1331L1718,1332L1715,1326L1715,1310L1712,1291L1725,1273L1730,1259L1730,1244L1722,1222L1719,1235L1715,1245L1709,1252L1704,1255L1696,1255L1690,1251L1687,1245L1686,1234L1687,1233L1688,1237L1689,1243L1693,1249L1696,1251L1701,1251L1704,1250L1708,1246L1711,1240L1713,1236L1712,1221L1714,1210L1720,1198L1732,1190L1745,1180L1759,1176L1777,1175L1794,1176L1810,1177L1828,1179L1846,1176L1850,1173L1857,1173L1863,1169L1871,1167L1886,1151L1893,1140L1894,1135L1903,1127L1910,1124L1922,1123L1935,1127Z" style="fill:rgb(28,29,33);"/>
        </g>
    </g>
</svg>
